<?xml version="1.0" standalone="no"?><!-- Generator: Gravit.io --><svg xmlns="http://www.w3.org/2000/svg" xmlns:xlink="http://www.w3.org/1999/xlink" style="isolation:isolate" viewBox="0 0 64 64" width="64" height="64"><defs><clipPath id="_clipPath_1uOvqdlpyTPyDzIDc0hrRGGzM2Rd81Dr"><rect width="64" height="64"/></clipPath></defs><g clip-path="url(#_clipPath_1uOvqdlpyTPyDzIDc0hrRGGzM2Rd81Dr)"><path d=" M 31.778 11.622 L 50.018 25.777 L 44.012 30.432 L 48.556 34.929 L 60.377 25.777 L 31.778 3.61 L 23.547 10.007 L 28.06 14.504 L 31.778 11.622 Z  M 60.377 41.833 L 55.198 37.811 L 53.069 39.458 L 57.613 43.986 L 60.377 41.833 Z  M 4.481 0 L 0 4.465 L 13.41 17.829 L 3.178 25.777 L 31.778 47.945 L 38.451 42.783 L 42.963 47.28 L 31.746 55.988 L 8.326 37.843 L 3.178 41.833 L 31.778 64 L 47.507 51.808 L 59.519 63.778 L 64 59.313 L 4.481 0 Z  M 31.778 39.933 L 13.537 25.777 L 17.954 22.357 L 33.907 38.254 L 31.778 39.933 Z "/></g></svg>
