<?xml version="1.0" standalone="no"?><!-- Generator: Gravit.io --><svg xmlns="http://www.w3.org/2000/svg" xmlns:xlink="http://www.w3.org/1999/xlink" style="isolation:isolate" viewBox="0 0 64 64" width="64" height="64"><defs><clipPath id="_clipPath_dIonvGdgxRRv0UPwZNKXqDQXfRTMeoLS"><rect width="64" height="64"/></clipPath></defs><g clip-path="url(#_clipPath_dIonvGdgxRRv0UPwZNKXqDQXfRTMeoLS)"><clipPath id="_clipPath_4VFtWfrepNvH2JCypI9VwblOY2iMg92J"><rect x="0" y="0" width="64" height="64" transform="matrix(1,0,0,1,0,0)"/></clipPath><g clip-path="url(#_clipPath_4VFtWfrepNvH2JCypI9VwblOY2iMg92J)"><g><clipPath id="_clipPath_1F24bB3EGS7SzTxR7EJ4lg8BxGW1GsJ1"><rect x="0" y="0" width="64" height="64" transform="matrix(1,0,0,1,0,0)"/></clipPath><g clip-path="url(#_clipPath_1F24bB3EGS7SzTxR7EJ4lg8BxGW1GsJ1)"><g><g><clipPath id="_clipPath_y3LQ84yOX0ey2ZkEZZYA4UyADt2EitYJ"><rect x="0" y="0" width="64" height="64" transform="matrix(1,0,0,1,0,0)"/></clipPath><g clip-path="url(#_clipPath_y3LQ84yOX0ey2ZkEZZYA4UyADt2EitYJ)"><g><g><g><path d=" M 27.21 9.764 C 24.752 13.475 22.85 16.707 23.009 16.947 C 23.168 17.186 24.515 17.366 26.021 17.366 L 28.715 17.366 L 28.715 25.985 C 28.715 33.767 28.795 34.725 29.548 36.161 C 30.182 37.418 30.697 37.717 32.084 37.717 C 33.471 37.717 33.986 37.418 34.62 36.161 C 35.373 34.725 35.452 33.767 35.452 25.985 L 35.452 17.366 L 38.226 17.366 C 40.208 17.366 41 17.126 41 16.588 C 41 15.69 32.639 3 32.084 3 C 31.846 3 29.667 6.053 27.21 9.764 Z " /><path d=" M 3.219 45.492 L 3.219 59.858 L 8.007 63.748 L 55.893 63.584 Q 60.527 60.191 60.682 59.858 C 60.906 59.344 60.682 49.38 60.682 45.193 L 60.682 31.126 L 55.893 31.126 L 53.312 31.126 L 53.312 42.499 L 53.312 57 L 31.172 57 L 10.312 57 L 10.312 42.499 L 10.312 31.126 L 8.007 31.126 L 3.219 31.126 L 3.219 45.492 L 3.219 45.492 L 3.219 45.492 Z "/></g></g></g></g></g></g></g></g></g></g></svg>
