<?xml version="1.0" standalone="no"?><!-- Generator: Gravit.io --><svg xmlns="http://www.w3.org/2000/svg" xmlns:xlink="http://www.w3.org/1999/xlink" style="isolation:isolate" viewBox="0 0 2148 512" width="2148" height="512"><defs><clipPath id="_clipPath_kUSrmMt1M0vuW836eyGukvIABn2JVmY3"><rect width="2148" height="512"/></clipPath></defs><g clip-path="url(#_clipPath_kUSrmMt1M0vuW836eyGukvIABn2JVmY3)"><rect x="232" y="166" width="11.655" height="330.072" transform="matrix(1,0,0,1,0,0)" fill="rgb(239,242,250)"/><rect x="285" y="245.137" width="11.655" height="248.863" transform="matrix(1,0,0,1,0,0)" fill="rgb(239,242,250)"/><rect x="338.731" y="390" width="11.655" height="104" transform="matrix(1,0,0,1,0,0)" fill="rgb(239,242,250)"/><rect x="392" y="369.568" width="11.655" height="120.432" transform="matrix(1,0,0,1,0,0)" fill="rgb(239,242,250)"/><rect x="444" y="347" width="11.655" height="143" transform="matrix(1,0,0,1,0,0)" fill="rgb(239,242,250)"/><rect x="495.423" y="321.157" width="11.655" height="168.843" transform="matrix(1,0,0,1,0,0)" fill="rgb(239,242,250)"/><rect x="179.345" y="273" width="11.655" height="213.193" transform="matrix(1,0,0,1,0,0)" fill="rgb(239,242,250)"/><rect x="126" y="237.06" width="11.655" height="242.579" transform="matrix(1,0,0,1,0,0)" fill="rgb(239,242,250)"/><rect x="74" y="204" width="11.655" height="282.193" transform="matrix(1,0,0,1,0,0)" fill="rgb(239,242,250)"/><g><rect x="105.556" y="119.288" width="12.746" height="210.743" transform="matrix(0.546,-0.838,0.838,0.546,-137.412,195.861)" fill="rgb(92,114,172)"/><rect x="71.134" y="369.113" width="12.746" height="140.441" transform="matrix(-0.653,-0.758,0.758,-0.653,-204.712,784.838)" fill="rgb(84,223,223)"/><rect x="246.132" y="228.173" width="12.746" height="257.182" transform="matrix(-0.296,-0.955,0.955,-0.296,-13.51,703.572)" fill="rgb(84,223,223)"/><rect x="463.227" y="27.356" width="12.746" height="231.506" transform="matrix(-0.96,-0.281,0.281,-0.96,880.171,412.247)" fill="rgb(84,223,223)"/><rect x="400.051" y="234.016" width="12.746" height="100.995" transform="matrix(-0.708,-0.706,0.706,-0.708,493.486,772.928)" fill="rgb(84,223,223)"/><rect x="227.548" y="73.603" width="12.746" height="210.743" transform="matrix(-0.945,-0.328,0.328,-0.945,396.208,424.767)" fill="rgb(92,114,172)"/><rect x="284.318" y="90.265" width="12.746" height="317.892" transform="matrix(-0.993,0.122,-0.122,-0.993,609.526,461.228)" fill="rgb(92,114,172)"/><rect x="400.051" y="257.063" width="12.746" height="212.839" transform="matrix(0.407,0.914,-0.914,0.407,573.292,-155.608)" fill="rgb(92,114,172)"/></g><g><path d=" M 26.483 441.379 L 8.828 441.379 C 3.953 441.379 0 437.426 0 432.551 L 0 432.551 C 0 427.676 3.953 423.723 8.828 423.723 L 26.483 423.723 L 26.483 441.379 L 26.483 441.379 Z " fill="rgb(215,222,237)"/><path d=" M 26.483 388.414 L 8.828 388.414 C 3.953 388.414 0 384.461 0 379.586 L 0 379.586 C 0 374.711 3.953 370.758 8.828 370.758 L 26.483 370.758 L 26.483 388.414 L 26.483 388.414 Z " fill="rgb(215,222,237)"/><path d=" M 26.483 335.448 L 8.828 335.448 C 3.953 335.448 0 331.495 0 326.62 L 0 326.62 C 0 321.745 3.953 317.792 8.828 317.792 L 26.483 317.792 L 26.483 335.448 L 26.483 335.448 Z " fill="rgb(215,222,237)"/><path d=" M 26.483 282.483 L 8.828 282.483 C 3.953 282.483 0 278.53 0 273.655 L 0 273.655 C 0 268.78 3.953 264.827 8.828 264.827 L 26.483 264.827 L 26.483 282.483 L 26.483 282.483 Z " fill="rgb(215,222,237)"/><path d=" M 26.483 229.517 L 8.828 229.517 C 3.953 229.517 0 225.564 0 220.689 L 0 220.689 C 0 215.814 3.953 211.861 8.828 211.861 L 26.483 211.861 L 26.483 229.517 L 26.483 229.517 Z " fill="rgb(215,222,237)"/><path d=" M 26.483 176.552 L 8.828 176.552 C 3.953 176.552 0 172.599 0 167.724 L 0 167.724 C 0 162.849 3.953 158.896 8.828 158.896 L 26.483 158.896 L 26.483 176.552 L 26.483 176.552 Z " fill="rgb(215,222,237)"/><path d=" M 26.483 123.586 L 8.828 123.586 C 3.953 123.586 0 119.633 0 114.758 L 0 114.758 C 0 109.883 3.953 105.93 8.828 105.93 L 26.483 105.93 L 26.483 123.586 L 26.483 123.586 Z " fill="rgb(215,222,237)"/><path d=" M 26.483 70.621 L 8.828 70.621 C 3.953 70.621 0 66.668 0 61.793 L 0 61.793 C 0 56.918 3.953 52.965 8.828 52.965 L 26.483 52.965 L 26.483 70.621 L 26.483 70.621 Z " fill="rgb(215,222,237)"/><path d=" M 26.483 70.621 L 8.828 70.621 C 3.953 70.621 0 66.668 0 61.793 L 0 61.793 C 0 56.918 3.953 52.965 8.828 52.965 L 26.483 52.965 L 26.483 70.621 Z " fill="rgb(215,222,237)"/><path d=" M 26.483 17.656 L 8.828 17.656 C 3.953 17.656 0 13.703 0 8.828 L 0 8.828 C 0 3.953 3.953 0 8.828 0 L 26.483 0 L 26.483 17.656 Z " fill="rgb(215,222,237)"/><path d=" M 459.034 485.517 L 459.034 503.172 C 459.034 508.047 455.081 512 450.206 512 L 450.206 512 C 445.331 512 441.378 508.047 441.378 503.172 L 441.378 485.517 L 459.034 485.517 L 459.034 485.517 Z " fill="rgb(215,222,237)"/><path d=" M 511.999 485.517 L 511.999 503.172 C 511.999 508.047 508.046 512 503.171 512 L 503.171 512 C 498.296 512 494.343 508.047 494.343 503.172 L 494.343 485.517 L 511.999 485.517 L 511.999 485.517 Z " fill="rgb(215,222,237)"/><path d=" M 406.069 485.517 L 406.069 503.172 C 406.069 508.047 402.116 512 397.241 512 L 397.241 512 C 392.366 512 388.413 508.047 388.413 503.172 L 388.413 485.517 L 406.069 485.517 L 406.069 485.517 Z " fill="rgb(215,222,237)"/><path d=" M 353.103 485.517 L 353.103 503.172 C 353.103 508.047 349.15 512 344.275 512 L 344.275 512 C 339.4 512 335.447 508.047 335.447 503.172 L 335.447 485.517 L 353.103 485.517 L 353.103 485.517 Z " fill="rgb(215,222,237)"/><path d=" M 300.138 485.517 L 300.138 503.172 C 300.138 508.047 296.185 512 291.31 512 L 291.31 512 C 286.435 512 282.482 508.047 282.482 503.172 L 282.482 485.517 L 300.138 485.517 L 300.138 485.517 Z " fill="rgb(215,222,237)"/><path d=" M 247.172 485.517 L 247.172 503.172 C 247.172 508.047 243.219 512 238.344 512 L 238.344 512 C 233.469 512 229.516 508.047 229.516 503.172 L 229.516 485.517 L 247.172 485.517 L 247.172 485.517 Z " fill="rgb(215,222,237)"/><path d=" M 194.207 485.517 L 194.207 503.172 C 194.207 508.047 190.254 512 185.379 512 L 185.379 512 C 180.504 512 176.551 508.047 176.551 503.172 L 176.551 485.517 L 194.207 485.517 L 194.207 485.517 Z " fill="rgb(215,222,237)"/><path d=" M 141.241 485.517 L 141.241 503.172 C 141.241 508.047 137.288 512 132.413 512 L 132.413 512 C 127.538 512 123.585 508.047 123.585 503.172 L 123.585 485.517 L 141.241 485.517 L 141.241 485.517 Z " fill="rgb(215,222,237)"/><path d=" M 88.276 485.517 L 88.276 503.172 C 88.276 508.047 84.323 512 79.448 512 L 79.448 512 C 74.573 512 70.62 508.047 70.62 503.172 L 70.62 485.517 L 88.276 485.517 L 88.276 485.517 Z " fill="rgb(215,222,237)"/></g><g><path d=" M 26.483 512 L 26.483 512 C 21.608 512 17.655 508.047 17.655 503.172 L 17.655 8.828 C 17.655 3.953 21.608 0 26.483 0 L 26.483 0 C 31.358 0 35.311 3.953 35.311 8.828 L 35.311 503.173 C 35.31 508.047 31.358 512 26.483 512 Z " fill="rgb(199,207,226)"/><path d=" M 0 485.517 L 0 485.517 C 0 480.642 4.239 476.689 9.466 476.689 L 539.534 476.689 C 544.761 476.689 549 480.642 549 485.517 L 549 485.517 C 549 490.392 544.761 494.345 539.534 494.345 L 9.466 494.345 C 4.239 494.345 0 490.392 0 485.517 Z " fill="rgb(199,207,226)"/></g><g><circle vector-effect="non-scaling-stroke" cx="199.03333560161713" cy="280.60813558707827" r="16.088329566118745" fill="rgb(195,230,120)"/><circle vector-effect="non-scaling-stroke" cx="268.0883295661188" cy="82.52100447816997" r="16.08832956611873" fill="rgb(195,230,120)"/><circle vector-effect="non-scaling-stroke" cx="501.7391704338813" cy="320.6682622200188" r="16.088329566118745" fill="rgb(195,230,120)"/><circle vector-effect="non-scaling-stroke" cx="310.9116704338813" cy="407.7528299188497" r="16.088329566118716" fill="rgb(195,230,120)"/></g><circle vector-effect="non-scaling-stroke" cx="131.8275" cy="395" r="16.576604123975443" fill="rgb(255,100,100)"/><circle vector-effect="non-scaling-stroke" cx="370.42339587602453" cy="321.15653677787554" r="16.57660412397547" fill="rgb(255,100,100)"/><circle vector-effect="non-scaling-stroke" cx="501.25089587602463" cy="35.57660412397547" r="16.57660412397547" fill="rgb(255,100,100)"/><g><path d=" M 781.515 247.483 L 781.515 330.065 L 781.515 330.065 Q 770.071 346.458 749.58 354.577 L 749.58 354.577 L 749.58 354.577 Q 729.089 362.696 701.871 362.696 L 701.871 362.696 L 701.871 362.696 Q 674.344 362.696 653.002 349.783 L 653.002 349.783 L 653.002 349.783 Q 631.661 336.869 619.985 313.054 L 619.985 313.054 L 619.985 313.054 Q 608.309 289.238 608 257.845 L 608 257.845 L 608 238.204 L 608 238.204 Q 608 187.325 631.738 159.334 L 631.738 159.334 L 631.738 159.334 Q 655.477 131.343 698.469 131.343 L 698.469 131.343 L 698.469 131.343 Q 733.729 131.343 755.225 149.359 L 755.225 149.359 L 755.225 149.359 Q 776.721 167.376 781.515 200.47 L 781.515 200.47 L 751.822 200.47 L 751.822 200.47 Q 743.471 155.777 698.624 155.777 L 698.624 155.777 L 698.624 155.777 Q 668.777 155.777 653.389 176.732 L 653.389 176.732 L 653.389 176.732 Q 638.002 197.687 637.847 237.431 L 637.847 237.431 L 637.847 255.834 L 637.847 255.834 Q 637.847 293.723 655.168 316.069 L 655.168 316.069 L 655.168 316.069 Q 672.488 338.416 702.026 338.416 L 702.026 338.416 L 702.026 338.416 Q 718.728 338.416 731.254 334.704 L 731.254 334.704 L 731.254 334.704 Q 743.781 330.993 751.977 322.178 L 751.977 322.178 L 751.977 271.608 L 699.861 271.608 L 699.861 247.483 L 781.515 247.483 Z  M 907.398 191.346 L 907.398 217.945 L 907.398 217.945 Q 900.903 216.863 893.325 216.863 L 893.325 216.863 L 893.325 216.863 Q 865.179 216.863 855.127 240.833 L 855.127 240.833 L 855.127 359.603 L 826.517 359.603 L 826.517 192.274 L 854.354 192.274 L 854.818 211.605 L 854.818 211.605 Q 868.891 189.181 894.717 189.181 L 894.717 189.181 L 894.717 189.181 Q 903.068 189.181 907.398 191.346 L 907.398 191.346 Z  M 1060.808 359.603 L 1030.807 359.603 L 1030.807 359.603 Q 1028.332 354.654 1026.786 341.973 L 1026.786 341.973 L 1026.786 341.973 Q 1006.836 362.696 979.154 362.696 L 979.154 362.696 L 979.154 362.696 Q 954.411 362.696 938.559 348.7 L 938.559 348.7 L 938.559 348.7 Q 922.708 334.704 922.708 313.208 L 922.708 313.208 L 922.708 313.208 Q 922.708 287.073 942.58 272.613 L 942.58 272.613 L 942.58 272.613 Q 962.452 258.154 998.485 258.154 L 998.485 258.154 L 1026.322 258.154 L 1026.322 245.009 L 1026.322 245.009 Q 1026.322 230.008 1017.352 221.116 L 1017.352 221.116 L 1017.352 221.116 Q 1008.383 212.223 990.908 212.223 L 990.908 212.223 L 990.908 212.223 Q 975.598 212.223 965.236 219.956 L 965.236 219.956 L 965.236 219.956 Q 954.875 227.688 954.875 238.668 L 954.875 238.668 L 926.11 238.668 L 926.11 238.668 Q 926.11 226.142 935.003 214.466 L 935.003 214.466 L 935.003 214.466 Q 943.895 202.79 959.128 195.985 L 959.128 195.985 L 959.128 195.985 Q 974.36 189.181 992.609 189.181 L 992.609 189.181 L 992.609 189.181 Q 1021.528 189.181 1037.921 203.641 L 1037.921 203.641 L 1037.921 203.641 Q 1054.313 218.1 1054.932 243.462 L 1054.932 243.462 L 1054.932 320.477 L 1054.932 320.477 Q 1054.932 343.519 1060.808 357.128 L 1060.808 357.128 L 1060.808 359.603 Z  M 983.33 337.797 L 983.33 337.797 L 983.33 337.797 Q 996.784 337.797 1008.847 330.838 L 1008.847 330.838 L 1008.847 330.838 Q 1020.909 323.879 1026.322 312.744 L 1026.322 312.744 L 1026.322 278.413 L 1003.898 278.413 L 1003.898 278.413 Q 951.318 278.413 951.318 309.188 L 951.318 309.188 L 951.318 309.188 Q 951.318 322.642 960.287 330.22 L 960.287 330.22 L 960.287 330.22 Q 969.257 337.797 983.33 337.797 Z  M 1241.128 275.165 L 1241.128 277.794 L 1241.128 277.794 Q 1241.128 315.992 1223.652 339.344 L 1223.652 339.344 L 1223.652 339.344 Q 1206.177 362.696 1176.33 362.696 L 1176.33 362.696 L 1176.33 362.696 Q 1145.865 362.696 1128.389 343.365 L 1128.389 343.365 L 1128.389 423.936 L 1099.78 423.936 L 1099.78 192.274 L 1125.915 192.274 L 1127.307 210.832 L 1127.307 210.832 Q 1144.782 189.181 1175.866 189.181 L 1175.866 189.181 L 1175.866 189.181 Q 1206.023 189.181 1223.575 211.914 L 1223.575 211.914 L 1223.575 211.914 Q 1241.128 234.647 1241.128 275.165 L 1241.128 275.165 Z  M 1212.518 274.546 L 1212.518 274.546 L 1212.518 274.546 Q 1212.518 246.246 1200.455 229.853 L 1200.455 229.853 L 1200.455 229.853 Q 1188.393 213.461 1167.361 213.461 L 1167.361 213.461 L 1167.361 213.461 Q 1141.38 213.461 1128.389 236.503 L 1128.389 236.503 L 1128.389 316.456 L 1128.389 316.456 Q 1141.225 339.344 1167.67 339.344 L 1167.67 339.344 L 1167.67 339.344 Q 1188.238 339.344 1200.378 323.029 L 1200.378 323.029 L 1200.378 323.029 Q 1212.518 306.713 1212.518 274.546 Z  M 1306.08 122.064 L 1306.08 212.533 L 1306.08 212.533 Q 1325.101 189.181 1355.567 189.181 L 1355.567 189.181 L 1355.567 189.181 Q 1408.611 189.181 1409.075 249.03 L 1409.075 249.03 L 1409.075 359.603 L 1380.465 359.603 L 1380.465 248.875 L 1380.465 248.875 Q 1380.311 230.781 1372.192 222.121 L 1372.192 222.121 L 1372.192 222.121 Q 1364.073 213.461 1346.907 213.461 L 1346.907 213.461 L 1346.907 213.461 Q 1332.988 213.461 1322.472 220.884 L 1322.472 220.884 L 1322.472 220.884 Q 1311.956 228.307 1306.08 240.369 L 1306.08 240.369 L 1306.08 359.603 L 1277.47 359.603 L 1277.47 122.064 L 1306.08 122.064 Z  M 1466.913 134.436 L 1530.937 320.168 L 1595.271 134.436 L 1627.747 134.436 L 1544.237 359.603 L 1517.947 359.603 L 1434.592 134.436 L 1466.913 134.436 Z  M 1684.503 192.274 L 1684.503 359.603 L 1655.893 359.603 L 1655.893 192.274 L 1684.503 192.274 Z  M 1653.573 147.89 L 1653.573 147.89 L 1653.573 147.89 Q 1653.573 140.931 1657.826 136.137 L 1657.826 136.137 L 1657.826 136.137 Q 1662.079 131.343 1670.43 131.343 L 1670.43 131.343 L 1670.43 131.343 Q 1678.781 131.343 1683.111 136.137 L 1683.111 136.137 L 1683.111 136.137 Q 1687.441 140.931 1687.441 147.89 L 1687.441 147.89 L 1687.441 147.89 Q 1687.441 154.849 1683.111 159.489 L 1683.111 159.489 L 1683.111 159.489 Q 1678.781 164.128 1670.43 164.128 L 1670.43 164.128 L 1670.43 164.128 Q 1662.079 164.128 1657.826 159.489 L 1657.826 159.489 L 1657.826 159.489 Q 1653.573 154.849 1653.573 147.89 Z  M 1799.715 362.696 L 1799.715 362.696 L 1799.715 362.696 Q 1765.693 362.696 1744.351 340.349 L 1744.351 340.349 L 1744.351 340.349 Q 1723.01 318.002 1723.01 280.578 L 1723.01 280.578 L 1723.01 275.32 L 1723.01 275.32 Q 1723.01 250.421 1732.521 230.859 L 1732.521 230.859 L 1732.521 230.859 Q 1742.031 211.296 1759.12 200.238 L 1759.12 200.238 L 1759.12 200.238 Q 1776.209 189.181 1796.158 189.181 L 1796.158 189.181 L 1796.158 189.181 Q 1828.789 189.181 1846.883 210.677 L 1846.883 210.677 L 1846.883 210.677 Q 1864.976 232.173 1864.976 272.227 L 1864.976 272.227 L 1864.976 284.135 L 1751.62 284.135 L 1751.62 284.135 Q 1752.238 308.878 1766.079 324.111 L 1766.079 324.111 L 1766.079 324.111 Q 1779.92 339.344 1801.262 339.344 L 1801.262 339.344 L 1801.262 339.344 Q 1816.417 339.344 1826.933 333.158 L 1826.933 333.158 L 1826.933 333.158 Q 1837.449 326.972 1845.336 316.765 L 1845.336 316.765 L 1862.811 330.374 L 1862.811 330.374 Q 1841.779 362.696 1799.715 362.696 Z  M 1796.158 212.687 L 1796.158 212.687 L 1796.158 212.687 Q 1778.838 212.687 1767.084 225.291 L 1767.084 225.291 L 1767.084 225.291 Q 1755.331 237.895 1752.548 260.628 L 1752.548 260.628 L 1836.367 260.628 L 1836.367 258.463 L 1836.367 258.463 Q 1835.129 236.658 1824.613 224.673 L 1824.613 224.673 L 1824.613 224.673 Q 1814.097 212.687 1796.158 212.687 Z  M 2006.479 192.274 L 2046.223 320.168 L 2078.39 192.274 L 2107 192.274 L 2058.286 359.603 L 2035.089 359.603 L 1994.416 232.792 L 1954.827 359.603 L 1931.63 359.603 L 1883.07 192.274 L 1911.525 192.274 L 1944.465 317.539 L 1983.437 192.274 L 2006.479 192.274 Z " fill="rgb(255,255,255)"/></g></g></svg>