<?xml version="1.0" standalone="no"?><!-- Generator: Gravit.io --><svg xmlns="http://www.w3.org/2000/svg" xmlns:xlink="http://www.w3.org/1999/xlink" style="isolation:isolate" viewBox="0 0 4608 4608" width="4608" height="4608"><defs><clipPath id="_clipPath_Jpoo6vptqPOUdIWImBTVz8UU5pdLadV8"><rect width="4608" height="4608"/></clipPath></defs><g clip-path="url(#_clipPath_Jpoo6vptqPOUdIWImBTVz8UU5pdLadV8)"><mask id="_mask_XJJzGwBHtcyoAGaFj0iJ9bzARcwrOzMW" x="-200%" y="-200%" width="400%" height="400%"><rect x="-200%" y="-200%" width="400%" height="400%" style="fill:white;"/><path d=" M 2407.04 3.2 C 2407.04 3.2 2453.12 6.694 2453.12 6.694 C 2453.12 6.694 2533.76 11.533 2533.76 11.533 C 2533.76 11.533 2637.44 25.165 2637.44 25.165 C 2795.686 45.978 2988.531 95.283 3136.64 154.496 C 3439.117 275.379 3689.638 431.398 3923.84 659.878 C 3923.84 659.878 3985.626 725.12 3985.626 725.12 C 3985.626 725.12 4091.802 844.16 4091.802 844.16 C 4330.189 1137.114 4498.074 1486.592 4569.728 1857.92 C 4569.728 1857.92 4602.867 2080.64 4602.867 2080.64 C 4602.867 2080.64 4607.706 2161.28 4607.706 2161.28 C 4607.706 2161.28 4611.2 2207.36 4611.2 2207.36 C 4611.2 2207.36 4611.2 2414.72 4611.2 2414.72 C 4611.2 2414.72 4607.706 2453.12 4607.706 2453.12 C 4607.706 2453.12 4602.867 2533.76 4602.867 2533.76 C 4602.867 2533.76 4589.773 2633.6 4589.773 2633.6 C 4568.422 2784.934 4533.094 2934.925 4481.83 3079.04 C 4381.722 3360.358 4237.03 3601.779 4042.381 3827.84 C 3841.472 4061.158 3582.464 4253.466 3305.6 4387.482 C 3069.517 4501.76 2794.957 4577.984 2533.76 4603.366 C 2533.76 4603.366 2503.04 4603.366 2503.04 4603.366 C 2503.04 4603.366 2407.04 4611.2 2407.04 4611.2 C 2407.04 4611.2 2199.68 4611.2 2199.68 4611.2 C 2199.68 4611.2 2161.28 4607.706 2161.28 4607.706 C 2161.28 4607.706 2080.64 4602.867 2080.64 4602.867 C 2080.64 4602.867 1976.96 4589.235 1976.96 4589.235 C 1816.41 4568.115 1624.179 4518.464 1473.92 4458.368 C 1183.117 4342.054 954.906 4199.667 725.12 3985.626 C 725.12 3985.626 659.878 3923.84 659.878 3923.84 C 458.739 3717.67 296.768 3474.253 183.181 3209.6 C 94.899 3003.891 32.768 2756.634 11.034 2533.76 C 11.034 2533.76 11.034 2503.04 11.034 2503.04 C 11.034 2503.04 3.2 2407.04 3.2 2407.04 C 3.2 2407.04 3.2 2203.52 3.2 2203.52 C 3.2 2203.52 6.886 2161.28 6.886 2161.28 C 10.381 2081.562 19.827 2001.997 32.96 1923.2 C 80.768 1636.352 180.723 1366.17 330.368 1116.8 C 434.278 943.616 579.43 759.91 728.96 624.627 C 728.96 624.627 778.88 579.2 778.88 579.2 C 778.88 579.2 3.2 579.2 3.2 579.2 C 3.2 579.2 3.2 195.2 3.2 195.2 C 3.2 195.2 1539.2 195.2 1539.2 195.2 C 1539.2 195.2 1539.2 1731.2 1539.2 1731.2 C 1539.2 1731.2 1155.2 1731.2 1155.2 1731.2 C 1155.2 1731.2 1155.2 775.04 1155.2 775.04 C 1155.2 775.04 1059.2 852.915 1059.2 852.915 C 997.376 906.867 938.24 963.814 883.213 1024.64 C 654.502 1277.542 494.797 1592.691 427.904 1927.04 C 411.2 2010.56 400.371 2091.814 394.534 2176.64 C 394.534 2176.64 391.04 2222.72 391.04 2222.72 C 391.04 2222.72 391.04 2387.84 391.04 2387.84 C 391.04 2387.84 394.534 2433.92 394.534 2433.92 C 404.864 2583.872 430.899 2731.712 475.597 2875.52 C 652.429 3444.339 1100.557 3913.203 1662.08 4113.19 C 2267.494 4328.806 2940.954 4227.776 3455.36 3841.395 C 3600.627 3732.262 3732.262 3600.627 3841.395 3455.36 C 3965.043 3290.701 4062.272 3105.382 4127.36 2910.08 C 4174.093 2769.92 4202.125 2626.803 4216.333 2480 C 4216.333 2480 4223.36 2395.52 4223.36 2395.52 C 4223.36 2395.52 4223.36 2226.56 4223.36 2226.56 C 4223.36 2226.56 4219.866 2180.48 4219.866 2180.48 C 4214.029 2095.386 4203.93 2010.829 4187.072 1927.04 C 4115.341 1570.496 3940.621 1244.71 3689.754 982.4 C 3689.754 982.4 3662.374 952.026 3662.374 952.026 C 3662.374 952.026 3632 924.646 3632 924.646 C 3553.587 849.651 3471.642 782.682 3382.4 720.819 C 3144.627 556.083 2858.163 448.448 2572.16 408.013 C 2492.864 396.838 2414.067 391.462 2334.08 391.04 C 2326.093 391.002 2312.038 391.654 2305.549 386.547 C 2294.605 377.907 2303.322 329.715 2303.36 314.24 C 2303.36 314.24 2307.2 72.32 2307.2 72.32 C 2307.2 72.32 2311.04 3.2 2311.04 3.2 C 2311.04 3.2 2407.04 3.2 2407.04 3.2 Z " fill="black" stroke="none"/></mask><path d=" M 2407.04 3.2 C 2407.04 3.2 2453.12 6.694 2453.12 6.694 C 2453.12 6.694 2533.76 11.533 2533.76 11.533 C 2533.76 11.533 2637.44 25.165 2637.44 25.165 C 2795.686 45.978 2988.531 95.283 3136.64 154.496 C 3439.117 275.379 3689.638 431.398 3923.84 659.878 C 3923.84 659.878 3985.626 725.12 3985.626 725.12 C 3985.626 725.12 4091.802 844.16 4091.802 844.16 C 4330.189 1137.114 4498.074 1486.592 4569.728 1857.92 C 4569.728 1857.92 4602.867 2080.64 4602.867 2080.64 C 4602.867 2080.64 4607.706 2161.28 4607.706 2161.28 C 4607.706 2161.28 4611.2 2207.36 4611.2 2207.36 C 4611.2 2207.36 4611.2 2414.72 4611.2 2414.72 C 4611.2 2414.72 4607.706 2453.12 4607.706 2453.12 C 4607.706 2453.12 4602.867 2533.76 4602.867 2533.76 C 4602.867 2533.76 4589.773 2633.6 4589.773 2633.6 C 4568.422 2784.934 4533.094 2934.925 4481.83 3079.04 C 4381.722 3360.358 4237.03 3601.779 4042.381 3827.84 C 3841.472 4061.158 3582.464 4253.466 3305.6 4387.482 C 3069.517 4501.76 2794.957 4577.984 2533.76 4603.366 C 2533.76 4603.366 2503.04 4603.366 2503.04 4603.366 C 2503.04 4603.366 2407.04 4611.2 2407.04 4611.2 C 2407.04 4611.2 2199.68 4611.2 2199.68 4611.2 C 2199.68 4611.2 2161.28 4607.706 2161.28 4607.706 C 2161.28 4607.706 2080.64 4602.867 2080.64 4602.867 C 2080.64 4602.867 1976.96 4589.235 1976.96 4589.235 C 1816.41 4568.115 1624.179 4518.464 1473.92 4458.368 C 1183.117 4342.054 954.906 4199.667 725.12 3985.626 C 725.12 3985.626 659.878 3923.84 659.878 3923.84 C 458.739 3717.67 296.768 3474.253 183.181 3209.6 C 94.899 3003.891 32.768 2756.634 11.034 2533.76 C 11.034 2533.76 11.034 2503.04 11.034 2503.04 C 11.034 2503.04 3.2 2407.04 3.2 2407.04 C 3.2 2407.04 3.2 2203.52 3.2 2203.52 C 3.2 2203.52 6.886 2161.28 6.886 2161.28 C 10.381 2081.562 19.827 2001.997 32.96 1923.2 C 80.768 1636.352 180.723 1366.17 330.368 1116.8 C 434.278 943.616 579.43 759.91 728.96 624.627 C 728.96 624.627 778.88 579.2 778.88 579.2 C 778.88 579.2 3.2 579.2 3.2 579.2 C 3.2 579.2 3.2 195.2 3.2 195.2 C 3.2 195.2 1539.2 195.2 1539.2 195.2 C 1539.2 195.2 1539.2 1731.2 1539.2 1731.2 C 1539.2 1731.2 1155.2 1731.2 1155.2 1731.2 C 1155.2 1731.2 1155.2 775.04 1155.2 775.04 C 1155.2 775.04 1059.2 852.915 1059.2 852.915 C 997.376 906.867 938.24 963.814 883.213 1024.64 C 654.502 1277.542 494.797 1592.691 427.904 1927.04 C 411.2 2010.56 400.371 2091.814 394.534 2176.64 C 394.534 2176.64 391.04 2222.72 391.04 2222.72 C 391.04 2222.72 391.04 2387.84 391.04 2387.84 C 391.04 2387.84 394.534 2433.92 394.534 2433.92 C 404.864 2583.872 430.899 2731.712 475.597 2875.52 C 652.429 3444.339 1100.557 3913.203 1662.08 4113.19 C 2267.494 4328.806 2940.954 4227.776 3455.36 3841.395 C 3600.627 3732.262 3732.262 3600.627 3841.395 3455.36 C 3965.043 3290.701 4062.272 3105.382 4127.36 2910.08 C 4174.093 2769.92 4202.125 2626.803 4216.333 2480 C 4216.333 2480 4223.36 2395.52 4223.36 2395.52 C 4223.36 2395.52 4223.36 2226.56 4223.36 2226.56 C 4223.36 2226.56 4219.866 2180.48 4219.866 2180.48 C 4214.029 2095.386 4203.93 2010.829 4187.072 1927.04 C 4115.341 1570.496 3940.621 1244.71 3689.754 982.4 C 3689.754 982.4 3662.374 952.026 3662.374 952.026 C 3662.374 952.026 3632 924.646 3632 924.646 C 3553.587 849.651 3471.642 782.682 3382.4 720.819 C 3144.627 556.083 2858.163 448.448 2572.16 408.013 C 2492.864 396.838 2414.067 391.462 2334.08 391.04 C 2326.093 391.002 2312.038 391.654 2305.549 386.547 C 2294.605 377.907 2303.322 329.715 2303.36 314.24 C 2303.36 314.24 2307.2 72.32 2307.2 72.32 C 2307.2 72.32 2311.04 3.2 2311.04 3.2 C 2311.04 3.2 2407.04 3.2 2407.04 3.2 Z " mask="url(#_mask_XJJzGwBHtcyoAGaFj0iJ9bzARcwrOzMW)" vector-effect="non-scaling-stroke" stroke-width="0.032" stroke="rgb(0,0,0)" stroke-linejoin="miter" stroke-linecap="butt" stroke-miterlimit="4"/></g></svg>
