<?xml version="1.0" standalone="no"?><!-- Generator: Gravit.io --><svg xmlns="http://www.w3.org/2000/svg" xmlns:xlink="http://www.w3.org/1999/xlink" style="isolation:isolate" viewBox="0 0 64 64" width="64" height="64"><defs><clipPath id="_clipPath_B5Vxw0FqAER4OQqFfVSlJ2bLOQCz0lNG"><rect width="64" height="64"/></clipPath></defs><g clip-path="url(#_clipPath_B5Vxw0FqAER4OQqFfVSlJ2bLOQCz0lNG)"><clipPath id="_clipPath_EanPdnkKnmWczNCwEdZ5axyuuyDcMCag"><rect x="0" y="0" width="64" height="64" transform="matrix(1,0,0,1,0,0)"/></clipPath><g clip-path="url(#_clipPath_EanPdnkKnmWczNCwEdZ5axyuuyDcMCag)"><g><clipPath id="_clipPath_7AY4eSngi6UOyEAc9r3Zt1SR27vZbcPG"><rect x="0" y="0" width="64" height="64" transform="matrix(1,0,0,1,0,0)"/></clipPath><g clip-path="url(#_clipPath_7AY4eSngi6UOyEAc9r3Zt1SR27vZbcPG)"><g><g><clipPath id="_clipPath_SOfHih3XhmFvsWXoBNl5jH153iFmtaIO"><rect x="0" y="0" width="64" height="64" transform="matrix(1,0,0,1,0,0)"/></clipPath><g clip-path="url(#_clipPath_SOfHih3XhmFvsWXoBNl5jH153iFmtaIO)"><g><g><g><path d=" M 1.002 3 L 1.071 61 C 1.072 62.104 1.969 63 3.073 63 L 7.772 63 L 32.036 63 L 61 63 C 62.104 63 63 62.104 63 61 L 63 31.981 L 63 3.105 C 63 2.002 62.104 1.105 61 1.105 L 55.259 1.105 L 50 1.029 C 48.896 1.013 48 1.896 48 3 L 48 10.153 L 48 16.482 C 48 17.585 47.104 18.482 46 18.482 L 30.02 18.482 L 16 18.482 C 14.896 18.482 14 17.585 14 16.482 L 14 3.105 C 14 2.002 13.104 1.098 12 1.089 L 3 1.016 C 1.896 1.007 1.001 1.896 1.002 3 Z  M 51 54.384 L 13.155 54.384 C 12.051 54.384 11.155 53.488 11.155 52.384 L 11.155 42.176 L 11.155 31.97 C 11.155 30.866 12.051 29.97 13.155 29.97 L 31.317 29.97 L 51 29.97 C 52.104 29.97 53 30.896 53 32 L 53 41 L 53 52.384 C 53 53.488 52.104 54.384 51 54.384 Z "/><path d=" M 40 3 L 44 3 C 44.552 3 45 3.448 45 4 L 45 15 C 45 15.552 44.552 16 44 16 L 40 16 C 39.448 16 39 15.552 39 15 L 39 4 C 39 3.448 39.448 3 40 3 Z "/></g></g></g></g></g></g></g></g></g></g></svg>
