<?xml version="1.0" encoding="UTF-8"?><!DOCTYPE svg PUBLIC "-//W3C//DTD SVG 1.1//EN" "http://www.w3.org/Graphics/SVG/1.1/DTD/svg11.dtd"><svg xmlns="http://www.w3.org/2000/svg" xmlns:xlink="http://www.w3.org/1999/xlink"><defs><clipPath id="_clipPath_QUEJ7itDj4bVWZouNoagtahL3a9rp05n"><rect x="317" y="265" width="64" height="64"/></clipPath><clipPath id="_clipPath_5ul447LFY51Oc1cNCqkPYzLEChzmnGqP"><rect x="316" y="242" width="64" height="64"/></clipPath><clipPath id="_clipPath_dIonvGdgxRRv0UPwZNKXqDQXfRTMeoLS"><rect width="64" height="64"/></clipPath><clipPath id="_clipPath_kUSrmMt1M0vuW836eyGukvIABn2JVmY3"><rect width="2148" height="512"/></clipPath><clipPath id="_clipPath_B5Vxw0FqAER4OQqFfVSlJ2bLOQCz0lNG"><rect width="64" height="64"/></clipPath><clipPath id="_clipPath_1uOvqdlpyTPyDzIDc0hrRGGzM2Rd81Dr"><rect width="64" height="64"/></clipPath><clipPath id="_clipPath_Jpoo6vptqPOUdIWImBTVz8UU5pdLadV8"><rect width="4608" height="4608"/></clipPath></defs><symbol id="arrow" viewBox="0 0 96 64" fill="currentColor"><polygon points="56 10.18 96 32 96 32 56 53.82 56 10.18"/><rect y="24.5" width="56" height="15"/></symbol><symbol id="connect" viewBox="317 265 64 64" fill="currentColor"><g clip-path="url(#_clipPath_QUEJ7itDj4bVWZouNoagtahL3a9rp05n)"><path d=" M 325.727 265 C 322.498 265 319.909 267.589 319.909 270.818 L 319.909 282.455 C 319.909 285.684 322.498 288.273 325.727 288.273 L 317 288.273 L 317 294.091 L 351.909 294.091 L 351.909 288.273 L 343.182 288.273 C 346.411 288.273 349 285.684 349 282.455 L 349 270.818 C 349 267.589 346.411 265 343.182 265 L 325.727 265 Z  M 325.727 270.818 L 343.182 270.818 L 343.182 282.455 L 325.727 282.455 L 325.727 270.818 Z  M 322.818 299.909 L 322.818 314.455 L 322.818 320.273 L 343.182 320.273 L 343.182 314.455 L 328.636 314.455 L 328.636 299.909 L 322.818 299.909 Z  M 354.818 299.909 C 351.589 299.909 349 302.498 349 305.727 L 349 317.364 C 349 320.593 351.589 323.182 354.818 323.182 L 346.091 323.182 L 346.091 329 L 381 329 L 381 323.182 L 372.273 323.182 C 375.502 323.182 378.091 320.593 378.091 317.364 L 378.091 305.727 C 378.091 302.498 375.502 299.909 372.273 299.909 L 354.818 299.909 Z  M 354.818 305.727 L 372.273 305.727 L 372.273 317.364 L 354.818 317.364 L 354.818 305.727 Z " fill="rgb(255,255,255)"/></g></symbol><symbol id="disconnect" viewBox="316 242 64 64" fill="currentColor"><g clip-path="url(#_clipPath_5ul447LFY51Oc1cNCqkPYzLEChzmnGqP)"><path d=" M 324.727 242 C 321.498 242 318.909 244.589 318.909 247.818 L 318.909 259.455 C 318.909 262.684 321.498 265.273 324.727 265.273 L 316 265.273 L 316 271.091 L 350.909 271.091 L 350.909 265.273 L 342.182 265.273 C 345.411 265.273 348 262.684 348 259.455 L 348 247.818 C 348 244.589 345.411 242 342.182 242 L 324.727 242 Z  M 324.727 247.818 L 342.182 247.818 L 342.182 259.455 L 324.727 259.455 L 324.727 247.818 Z  M 353.818 276.909 C 350.589 276.909 348 279.498 348 282.727 L 348 294.364 C 348 297.593 350.589 300.182 353.818 300.182 L 345.091 300.182 L 345.091 306 L 380 306 L 380 300.182 L 371.273 300.182 C 374.502 300.182 377.091 297.593 377.091 294.364 L 377.091 282.727 C 377.091 279.498 374.502 276.909 371.273 276.909 L 353.818 276.909 Z  M 324.378 278.247 L 320.247 282.378 L 326.444 288.545 L 320.247 294.713 L 324.378 298.844 L 330.545 292.647 L 336.713 298.844 L 340.844 294.713 L 334.647 288.545 L 340.844 282.378 L 336.713 278.247 L 330.545 284.444 L 324.378 278.247 Z  M 353.818 282.727 L 371.273 282.727 L 371.273 294.364 L 353.818 294.364 L 353.818 282.727 Z " fill="rgb(255,255,255)"/></g></symbol><symbol id="load" viewBox="0 0 64 64" fill="currentColor"><g clip-path="url(#_clipPath_dIonvGdgxRRv0UPwZNKXqDQXfRTMeoLS)"><clipPath id="_clipPath_4VFtWfrepNvH2JCypI9VwblOY2iMg92J"><rect x="0" y="0" width="64" height="64" transform="matrix(1,0,0,1,0,0)"/></clipPath><g clip-path="url(#_clipPath_4VFtWfrepNvH2JCypI9VwblOY2iMg92J)"><g><clipPath id="_clipPath_1F24bB3EGS7SzTxR7EJ4lg8BxGW1GsJ1"><rect x="0" y="0" width="64" height="64" transform="matrix(1,0,0,1,0,0)"/></clipPath><g clip-path="url(#_clipPath_1F24bB3EGS7SzTxR7EJ4lg8BxGW1GsJ1)"><g><g><clipPath id="_clipPath_y3LQ84yOX0ey2ZkEZZYA4UyADt2EitYJ"><rect x="0" y="0" width="64" height="64" transform="matrix(1,0,0,1,0,0)"/></clipPath><g clip-path="url(#_clipPath_y3LQ84yOX0ey2ZkEZZYA4UyADt2EitYJ)"><g><g><g><path d=" M 27.21 9.764 C 24.752 13.475 22.85 16.707 23.009 16.947 C 23.168 17.186 24.515 17.366 26.021 17.366 L 28.715 17.366 L 28.715 25.985 C 28.715 33.767 28.795 34.725 29.548 36.161 C 30.182 37.418 30.697 37.717 32.084 37.717 C 33.471 37.717 33.986 37.418 34.62 36.161 C 35.373 34.725 35.452 33.767 35.452 25.985 L 35.452 17.366 L 38.226 17.366 C 40.208 17.366 41 17.126 41 16.588 C 41 15.69 32.639 3 32.084 3 C 31.846 3 29.667 6.053 27.21 9.764 Z "/><path d=" M 3.219 45.492 L 3.219 59.858 L 8.007 63.748 L 55.893 63.584 Q 60.527 60.191 60.682 59.858 C 60.906 59.344 60.682 49.38 60.682 45.193 L 60.682 31.126 L 55.893 31.126 L 53.312 31.126 L 53.312 42.499 L 53.312 57 L 31.172 57 L 10.312 57 L 10.312 42.499 L 10.312 31.126 L 8.007 31.126 L 3.219 31.126 L 3.219 45.492 L 3.219 45.492 L 3.219 45.492 Z "/></g></g></g></g></g></g></g></g></g></g></symbol><symbol id="logo" viewBox="0 0 2148 512" fill="currentColor"><g clip-path="url(#_clipPath_kUSrmMt1M0vuW836eyGukvIABn2JVmY3)"><rect x="232" y="166" width="11.655" height="330.072" transform="matrix(1,0,0,1,0,0)" fill="rgb(239,242,250)"/><rect x="285" y="245.137" width="11.655" height="248.863" transform="matrix(1,0,0,1,0,0)" fill="rgb(239,242,250)"/><rect x="338.731" y="390" width="11.655" height="104" transform="matrix(1,0,0,1,0,0)" fill="rgb(239,242,250)"/><rect x="392" y="369.568" width="11.655" height="120.432" transform="matrix(1,0,0,1,0,0)" fill="rgb(239,242,250)"/><rect x="444" y="347" width="11.655" height="143" transform="matrix(1,0,0,1,0,0)" fill="rgb(239,242,250)"/><rect x="495.423" y="321.157" width="11.655" height="168.843" transform="matrix(1,0,0,1,0,0)" fill="rgb(239,242,250)"/><rect x="179.345" y="273" width="11.655" height="213.193" transform="matrix(1,0,0,1,0,0)" fill="rgb(239,242,250)"/><rect x="126" y="237.06" width="11.655" height="242.579" transform="matrix(1,0,0,1,0,0)" fill="rgb(239,242,250)"/><rect x="74" y="204" width="11.655" height="282.193" transform="matrix(1,0,0,1,0,0)" fill="rgb(239,242,250)"/><g><rect x="105.556" y="119.288" width="12.746" height="210.743" transform="matrix(0.546,-0.838,0.838,0.546,-137.412,195.861)" fill="rgb(92,114,172)"/><rect x="71.134" y="369.113" width="12.746" height="140.441" transform="matrix(-0.653,-0.758,0.758,-0.653,-204.712,784.838)" fill="rgb(84,223,223)"/><rect x="246.132" y="228.173" width="12.746" height="257.182" transform="matrix(-0.296,-0.955,0.955,-0.296,-13.51,703.572)" fill="rgb(84,223,223)"/><rect x="463.227" y="27.356" width="12.746" height="231.506" transform="matrix(-0.96,-0.281,0.281,-0.96,880.171,412.247)" fill="rgb(84,223,223)"/><rect x="400.051" y="234.016" width="12.746" height="100.995" transform="matrix(-0.708,-0.706,0.706,-0.708,493.486,772.928)" fill="rgb(84,223,223)"/><rect x="227.548" y="73.603" width="12.746" height="210.743" transform="matrix(-0.945,-0.328,0.328,-0.945,396.208,424.767)" fill="rgb(92,114,172)"/><rect x="284.318" y="90.265" width="12.746" height="317.892" transform="matrix(-0.993,0.122,-0.122,-0.993,609.526,461.228)" fill="rgb(92,114,172)"/><rect x="400.051" y="257.063" width="12.746" height="212.839" transform="matrix(0.407,0.914,-0.914,0.407,573.292,-155.608)" fill="rgb(92,114,172)"/></g><g><path d=" M 26.483 441.379 L 8.828 441.379 C 3.953 441.379 0 437.426 0 432.551 L 0 432.551 C 0 427.676 3.953 423.723 8.828 423.723 L 26.483 423.723 L 26.483 441.379 L 26.483 441.379 Z " fill="rgb(215,222,237)"/><path d=" M 26.483 388.414 L 8.828 388.414 C 3.953 388.414 0 384.461 0 379.586 L 0 379.586 C 0 374.711 3.953 370.758 8.828 370.758 L 26.483 370.758 L 26.483 388.414 L 26.483 388.414 Z " fill="rgb(215,222,237)"/><path d=" M 26.483 335.448 L 8.828 335.448 C 3.953 335.448 0 331.495 0 326.62 L 0 326.62 C 0 321.745 3.953 317.792 8.828 317.792 L 26.483 317.792 L 26.483 335.448 L 26.483 335.448 Z " fill="rgb(215,222,237)"/><path d=" M 26.483 282.483 L 8.828 282.483 C 3.953 282.483 0 278.53 0 273.655 L 0 273.655 C 0 268.78 3.953 264.827 8.828 264.827 L 26.483 264.827 L 26.483 282.483 L 26.483 282.483 Z " fill="rgb(215,222,237)"/><path d=" M 26.483 229.517 L 8.828 229.517 C 3.953 229.517 0 225.564 0 220.689 L 0 220.689 C 0 215.814 3.953 211.861 8.828 211.861 L 26.483 211.861 L 26.483 229.517 L 26.483 229.517 Z " fill="rgb(215,222,237)"/><path d=" M 26.483 176.552 L 8.828 176.552 C 3.953 176.552 0 172.599 0 167.724 L 0 167.724 C 0 162.849 3.953 158.896 8.828 158.896 L 26.483 158.896 L 26.483 176.552 L 26.483 176.552 Z " fill="rgb(215,222,237)"/><path d=" M 26.483 123.586 L 8.828 123.586 C 3.953 123.586 0 119.633 0 114.758 L 0 114.758 C 0 109.883 3.953 105.93 8.828 105.93 L 26.483 105.93 L 26.483 123.586 L 26.483 123.586 Z " fill="rgb(215,222,237)"/><path d=" M 26.483 70.621 L 8.828 70.621 C 3.953 70.621 0 66.668 0 61.793 L 0 61.793 C 0 56.918 3.953 52.965 8.828 52.965 L 26.483 52.965 L 26.483 70.621 L 26.483 70.621 Z " fill="rgb(215,222,237)"/><path d=" M 26.483 70.621 L 8.828 70.621 C 3.953 70.621 0 66.668 0 61.793 L 0 61.793 C 0 56.918 3.953 52.965 8.828 52.965 L 26.483 52.965 L 26.483 70.621 Z " fill="rgb(215,222,237)"/><path d=" M 26.483 17.656 L 8.828 17.656 C 3.953 17.656 0 13.703 0 8.828 L 0 8.828 C 0 3.953 3.953 0 8.828 0 L 26.483 0 L 26.483 17.656 Z " fill="rgb(215,222,237)"/><path d=" M 459.034 485.517 L 459.034 503.172 C 459.034 508.047 455.081 512 450.206 512 L 450.206 512 C 445.331 512 441.378 508.047 441.378 503.172 L 441.378 485.517 L 459.034 485.517 L 459.034 485.517 Z " fill="rgb(215,222,237)"/><path d=" M 511.999 485.517 L 511.999 503.172 C 511.999 508.047 508.046 512 503.171 512 L 503.171 512 C 498.296 512 494.343 508.047 494.343 503.172 L 494.343 485.517 L 511.999 485.517 L 511.999 485.517 Z " fill="rgb(215,222,237)"/><path d=" M 406.069 485.517 L 406.069 503.172 C 406.069 508.047 402.116 512 397.241 512 L 397.241 512 C 392.366 512 388.413 508.047 388.413 503.172 L 388.413 485.517 L 406.069 485.517 L 406.069 485.517 Z " fill="rgb(215,222,237)"/><path d=" M 353.103 485.517 L 353.103 503.172 C 353.103 508.047 349.15 512 344.275 512 L 344.275 512 C 339.4 512 335.447 508.047 335.447 503.172 L 335.447 485.517 L 353.103 485.517 L 353.103 485.517 Z " fill="rgb(215,222,237)"/><path d=" M 300.138 485.517 L 300.138 503.172 C 300.138 508.047 296.185 512 291.31 512 L 291.31 512 C 286.435 512 282.482 508.047 282.482 503.172 L 282.482 485.517 L 300.138 485.517 L 300.138 485.517 Z " fill="rgb(215,222,237)"/><path d=" M 247.172 485.517 L 247.172 503.172 C 247.172 508.047 243.219 512 238.344 512 L 238.344 512 C 233.469 512 229.516 508.047 229.516 503.172 L 229.516 485.517 L 247.172 485.517 L 247.172 485.517 Z " fill="rgb(215,222,237)"/><path d=" M 194.207 485.517 L 194.207 503.172 C 194.207 508.047 190.254 512 185.379 512 L 185.379 512 C 180.504 512 176.551 508.047 176.551 503.172 L 176.551 485.517 L 194.207 485.517 L 194.207 485.517 Z " fill="rgb(215,222,237)"/><path d=" M 141.241 485.517 L 141.241 503.172 C 141.241 508.047 137.288 512 132.413 512 L 132.413 512 C 127.538 512 123.585 508.047 123.585 503.172 L 123.585 485.517 L 141.241 485.517 L 141.241 485.517 Z " fill="rgb(215,222,237)"/><path d=" M 88.276 485.517 L 88.276 503.172 C 88.276 508.047 84.323 512 79.448 512 L 79.448 512 C 74.573 512 70.62 508.047 70.62 503.172 L 70.62 485.517 L 88.276 485.517 L 88.276 485.517 Z " fill="rgb(215,222,237)"/></g><g><path d=" M 26.483 512 L 26.483 512 C 21.608 512 17.655 508.047 17.655 503.172 L 17.655 8.828 C 17.655 3.953 21.608 0 26.483 0 L 26.483 0 C 31.358 0 35.311 3.953 35.311 8.828 L 35.311 503.173 C 35.31 508.047 31.358 512 26.483 512 Z " fill="rgb(199,207,226)"/><path d=" M 0 485.517 L 0 485.517 C 0 480.642 4.239 476.689 9.466 476.689 L 539.534 476.689 C 544.761 476.689 549 480.642 549 485.517 L 549 485.517 C 549 490.392 544.761 494.345 539.534 494.345 L 9.466 494.345 C 4.239 494.345 0 490.392 0 485.517 Z " fill="rgb(199,207,226)"/></g><g><circle vector-effect="non-scaling-stroke" cx="199.03333560161713" cy="280.60813558707827" r="16.088329566118745" fill="rgb(195,230,120)"/><circle vector-effect="non-scaling-stroke" cx="268.0883295661188" cy="82.52100447816997" r="16.08832956611873" fill="rgb(195,230,120)"/><circle vector-effect="non-scaling-stroke" cx="501.7391704338813" cy="320.6682622200188" r="16.088329566118745" fill="rgb(195,230,120)"/><circle vector-effect="non-scaling-stroke" cx="310.9116704338813" cy="407.7528299188497" r="16.088329566118716" fill="rgb(195,230,120)"/></g><circle vector-effect="non-scaling-stroke" cx="131.8275" cy="395" r="16.576604123975443" fill="rgb(255,100,100)"/><circle vector-effect="non-scaling-stroke" cx="370.42339587602453" cy="321.15653677787554" r="16.57660412397547" fill="rgb(255,100,100)"/><circle vector-effect="non-scaling-stroke" cx="501.25089587602463" cy="35.57660412397547" r="16.57660412397547" fill="rgb(255,100,100)"/><g><path d=" M 781.515 247.483 L 781.515 330.065 L 781.515 330.065 Q 770.071 346.458 749.58 354.577 L 749.58 354.577 L 749.58 354.577 Q 729.089 362.696 701.871 362.696 L 701.871 362.696 L 701.871 362.696 Q 674.344 362.696 653.002 349.783 L 653.002 349.783 L 653.002 349.783 Q 631.661 336.869 619.985 313.054 L 619.985 313.054 L 619.985 313.054 Q 608.309 289.238 608 257.845 L 608 257.845 L 608 238.204 L 608 238.204 Q 608 187.325 631.738 159.334 L 631.738 159.334 L 631.738 159.334 Q 655.477 131.343 698.469 131.343 L 698.469 131.343 L 698.469 131.343 Q 733.729 131.343 755.225 149.359 L 755.225 149.359 L 755.225 149.359 Q 776.721 167.376 781.515 200.47 L 781.515 200.47 L 751.822 200.47 L 751.822 200.47 Q 743.471 155.777 698.624 155.777 L 698.624 155.777 L 698.624 155.777 Q 668.777 155.777 653.389 176.732 L 653.389 176.732 L 653.389 176.732 Q 638.002 197.687 637.847 237.431 L 637.847 237.431 L 637.847 255.834 L 637.847 255.834 Q 637.847 293.723 655.168 316.069 L 655.168 316.069 L 655.168 316.069 Q 672.488 338.416 702.026 338.416 L 702.026 338.416 L 702.026 338.416 Q 718.728 338.416 731.254 334.704 L 731.254 334.704 L 731.254 334.704 Q 743.781 330.993 751.977 322.178 L 751.977 322.178 L 751.977 271.608 L 699.861 271.608 L 699.861 247.483 L 781.515 247.483 Z  M 907.398 191.346 L 907.398 217.945 L 907.398 217.945 Q 900.903 216.863 893.325 216.863 L 893.325 216.863 L 893.325 216.863 Q 865.179 216.863 855.127 240.833 L 855.127 240.833 L 855.127 359.603 L 826.517 359.603 L 826.517 192.274 L 854.354 192.274 L 854.818 211.605 L 854.818 211.605 Q 868.891 189.181 894.717 189.181 L 894.717 189.181 L 894.717 189.181 Q 903.068 189.181 907.398 191.346 L 907.398 191.346 Z  M 1060.808 359.603 L 1030.807 359.603 L 1030.807 359.603 Q 1028.332 354.654 1026.786 341.973 L 1026.786 341.973 L 1026.786 341.973 Q 1006.836 362.696 979.154 362.696 L 979.154 362.696 L 979.154 362.696 Q 954.411 362.696 938.559 348.7 L 938.559 348.7 L 938.559 348.7 Q 922.708 334.704 922.708 313.208 L 922.708 313.208 L 922.708 313.208 Q 922.708 287.073 942.58 272.613 L 942.58 272.613 L 942.58 272.613 Q 962.452 258.154 998.485 258.154 L 998.485 258.154 L 1026.322 258.154 L 1026.322 245.009 L 1026.322 245.009 Q 1026.322 230.008 1017.352 221.116 L 1017.352 221.116 L 1017.352 221.116 Q 1008.383 212.223 990.908 212.223 L 990.908 212.223 L 990.908 212.223 Q 975.598 212.223 965.236 219.956 L 965.236 219.956 L 965.236 219.956 Q 954.875 227.688 954.875 238.668 L 954.875 238.668 L 926.11 238.668 L 926.11 238.668 Q 926.11 226.142 935.003 214.466 L 935.003 214.466 L 935.003 214.466 Q 943.895 202.79 959.128 195.985 L 959.128 195.985 L 959.128 195.985 Q 974.36 189.181 992.609 189.181 L 992.609 189.181 L 992.609 189.181 Q 1021.528 189.181 1037.921 203.641 L 1037.921 203.641 L 1037.921 203.641 Q 1054.313 218.1 1054.932 243.462 L 1054.932 243.462 L 1054.932 320.477 L 1054.932 320.477 Q 1054.932 343.519 1060.808 357.128 L 1060.808 357.128 L 1060.808 359.603 Z  M 983.33 337.797 L 983.33 337.797 L 983.33 337.797 Q 996.784 337.797 1008.847 330.838 L 1008.847 330.838 L 1008.847 330.838 Q 1020.909 323.879 1026.322 312.744 L 1026.322 312.744 L 1026.322 278.413 L 1003.898 278.413 L 1003.898 278.413 Q 951.318 278.413 951.318 309.188 L 951.318 309.188 L 951.318 309.188 Q 951.318 322.642 960.287 330.22 L 960.287 330.22 L 960.287 330.22 Q 969.257 337.797 983.33 337.797 Z  M 1241.128 275.165 L 1241.128 277.794 L 1241.128 277.794 Q 1241.128 315.992 1223.652 339.344 L 1223.652 339.344 L 1223.652 339.344 Q 1206.177 362.696 1176.33 362.696 L 1176.33 362.696 L 1176.33 362.696 Q 1145.865 362.696 1128.389 343.365 L 1128.389 343.365 L 1128.389 423.936 L 1099.78 423.936 L 1099.78 192.274 L 1125.915 192.274 L 1127.307 210.832 L 1127.307 210.832 Q 1144.782 189.181 1175.866 189.181 L 1175.866 189.181 L 1175.866 189.181 Q 1206.023 189.181 1223.575 211.914 L 1223.575 211.914 L 1223.575 211.914 Q 1241.128 234.647 1241.128 275.165 L 1241.128 275.165 Z  M 1212.518 274.546 L 1212.518 274.546 L 1212.518 274.546 Q 1212.518 246.246 1200.455 229.853 L 1200.455 229.853 L 1200.455 229.853 Q 1188.393 213.461 1167.361 213.461 L 1167.361 213.461 L 1167.361 213.461 Q 1141.38 213.461 1128.389 236.503 L 1128.389 236.503 L 1128.389 316.456 L 1128.389 316.456 Q 1141.225 339.344 1167.67 339.344 L 1167.67 339.344 L 1167.67 339.344 Q 1188.238 339.344 1200.378 323.029 L 1200.378 323.029 L 1200.378 323.029 Q 1212.518 306.713 1212.518 274.546 Z  M 1306.08 122.064 L 1306.08 212.533 L 1306.08 212.533 Q 1325.101 189.181 1355.567 189.181 L 1355.567 189.181 L 1355.567 189.181 Q 1408.611 189.181 1409.075 249.03 L 1409.075 249.03 L 1409.075 359.603 L 1380.465 359.603 L 1380.465 248.875 L 1380.465 248.875 Q 1380.311 230.781 1372.192 222.121 L 1372.192 222.121 L 1372.192 222.121 Q 1364.073 213.461 1346.907 213.461 L 1346.907 213.461 L 1346.907 213.461 Q 1332.988 213.461 1322.472 220.884 L 1322.472 220.884 L 1322.472 220.884 Q 1311.956 228.307 1306.08 240.369 L 1306.08 240.369 L 1306.08 359.603 L 1277.47 359.603 L 1277.47 122.064 L 1306.08 122.064 Z  M 1466.913 134.436 L 1530.937 320.168 L 1595.271 134.436 L 1627.747 134.436 L 1544.237 359.603 L 1517.947 359.603 L 1434.592 134.436 L 1466.913 134.436 Z  M 1684.503 192.274 L 1684.503 359.603 L 1655.893 359.603 L 1655.893 192.274 L 1684.503 192.274 Z  M 1653.573 147.89 L 1653.573 147.89 L 1653.573 147.89 Q 1653.573 140.931 1657.826 136.137 L 1657.826 136.137 L 1657.826 136.137 Q 1662.079 131.343 1670.43 131.343 L 1670.43 131.343 L 1670.43 131.343 Q 1678.781 131.343 1683.111 136.137 L 1683.111 136.137 L 1683.111 136.137 Q 1687.441 140.931 1687.441 147.89 L 1687.441 147.89 L 1687.441 147.89 Q 1687.441 154.849 1683.111 159.489 L 1683.111 159.489 L 1683.111 159.489 Q 1678.781 164.128 1670.43 164.128 L 1670.43 164.128 L 1670.43 164.128 Q 1662.079 164.128 1657.826 159.489 L 1657.826 159.489 L 1657.826 159.489 Q 1653.573 154.849 1653.573 147.89 Z  M 1799.715 362.696 L 1799.715 362.696 L 1799.715 362.696 Q 1765.693 362.696 1744.351 340.349 L 1744.351 340.349 L 1744.351 340.349 Q 1723.01 318.002 1723.01 280.578 L 1723.01 280.578 L 1723.01 275.32 L 1723.01 275.32 Q 1723.01 250.421 1732.521 230.859 L 1732.521 230.859 L 1732.521 230.859 Q 1742.031 211.296 1759.12 200.238 L 1759.12 200.238 L 1759.12 200.238 Q 1776.209 189.181 1796.158 189.181 L 1796.158 189.181 L 1796.158 189.181 Q 1828.789 189.181 1846.883 210.677 L 1846.883 210.677 L 1846.883 210.677 Q 1864.976 232.173 1864.976 272.227 L 1864.976 272.227 L 1864.976 284.135 L 1751.62 284.135 L 1751.62 284.135 Q 1752.238 308.878 1766.079 324.111 L 1766.079 324.111 L 1766.079 324.111 Q 1779.92 339.344 1801.262 339.344 L 1801.262 339.344 L 1801.262 339.344 Q 1816.417 339.344 1826.933 333.158 L 1826.933 333.158 L 1826.933 333.158 Q 1837.449 326.972 1845.336 316.765 L 1845.336 316.765 L 1862.811 330.374 L 1862.811 330.374 Q 1841.779 362.696 1799.715 362.696 Z  M 1796.158 212.687 L 1796.158 212.687 L 1796.158 212.687 Q 1778.838 212.687 1767.084 225.291 L 1767.084 225.291 L 1767.084 225.291 Q 1755.331 237.895 1752.548 260.628 L 1752.548 260.628 L 1836.367 260.628 L 1836.367 258.463 L 1836.367 258.463 Q 1835.129 236.658 1824.613 224.673 L 1824.613 224.673 L 1824.613 224.673 Q 1814.097 212.687 1796.158 212.687 Z  M 2006.479 192.274 L 2046.223 320.168 L 2078.39 192.274 L 2107 192.274 L 2058.286 359.603 L 2035.089 359.603 L 1994.416 232.792 L 1954.827 359.603 L 1931.63 359.603 L 1883.07 192.274 L 1911.525 192.274 L 1944.465 317.539 L 1983.437 192.274 L 2006.479 192.274 Z " fill="rgb(255,255,255)"/></g></g></symbol><symbol id="save" viewBox="0 0 64 64" fill="currentColor"><g clip-path="url(#_clipPath_B5Vxw0FqAER4OQqFfVSlJ2bLOQCz0lNG)"><clipPath id="_clipPath_EanPdnkKnmWczNCwEdZ5axyuuyDcMCag"><rect x="0" y="0" width="64" height="64" transform="matrix(1,0,0,1,0,0)"/></clipPath><g clip-path="url(#_clipPath_EanPdnkKnmWczNCwEdZ5axyuuyDcMCag)"><g><clipPath id="_clipPath_7AY4eSngi6UOyEAc9r3Zt1SR27vZbcPG"><rect x="0" y="0" width="64" height="64" transform="matrix(1,0,0,1,0,0)"/></clipPath><g clip-path="url(#_clipPath_7AY4eSngi6UOyEAc9r3Zt1SR27vZbcPG)"><g><g><clipPath id="_clipPath_SOfHih3XhmFvsWXoBNl5jH153iFmtaIO"><rect x="0" y="0" width="64" height="64" transform="matrix(1,0,0,1,0,0)"/></clipPath><g clip-path="url(#_clipPath_SOfHih3XhmFvsWXoBNl5jH153iFmtaIO)"><g><g><g><path d=" M 1.002 3 L 1.071 61 C 1.072 62.104 1.969 63 3.073 63 L 7.772 63 L 32.036 63 L 61 63 C 62.104 63 63 62.104 63 61 L 63 31.981 L 63 3.105 C 63 2.002 62.104 1.105 61 1.105 L 55.259 1.105 L 50 1.029 C 48.896 1.013 48 1.896 48 3 L 48 10.153 L 48 16.482 C 48 17.585 47.104 18.482 46 18.482 L 30.02 18.482 L 16 18.482 C 14.896 18.482 14 17.585 14 16.482 L 14 3.105 C 14 2.002 13.104 1.098 12 1.089 L 3 1.016 C 1.896 1.007 1.001 1.896 1.002 3 Z  M 51 54.384 L 13.155 54.384 C 12.051 54.384 11.155 53.488 11.155 52.384 L 11.155 42.176 L 11.155 31.97 C 11.155 30.866 12.051 29.97 13.155 29.97 L 31.317 29.97 L 51 29.97 C 52.104 29.97 53 30.896 53 32 L 53 41 L 53 52.384 C 53 53.488 52.104 54.384 51 54.384 Z "/><path d=" M 40 3 L 44 3 C 44.552 3 45 3.448 45 4 L 45 15 C 45 15.552 44.552 16 44 16 L 40 16 C 39.448 16 39 15.552 39 15 L 39 4 C 39 3.448 39.448 3 40 3 Z "/></g></g></g></g></g></g></g></g></g></g></symbol><symbol id="clear" viewBox="0 0 64 64" fill="currentColor"><g clip-path="url(#_clipPath_1uOvqdlpyTPyDzIDc0hrRGGzM2Rd81Dr)"><path d=" M 31.778 11.622 L 50.018 25.777 L 44.012 30.432 L 48.556 34.929 L 60.377 25.777 L 31.778 3.61 L 23.547 10.007 L 28.06 14.504 L 31.778 11.622 Z  M 60.377 41.833 L 55.198 37.811 L 53.069 39.458 L 57.613 43.986 L 60.377 41.833 Z  M 4.481 0 L 0 4.465 L 13.41 17.829 L 3.178 25.777 L 31.778 47.945 L 38.451 42.783 L 42.963 47.28 L 31.746 55.988 L 8.326 37.843 L 3.178 41.833 L 31.778 64 L 47.507 51.808 L 59.519 63.778 L 64 59.313 L 4.481 0 Z  M 31.778 39.933 L 13.537 25.777 L 17.954 22.357 L 33.907 38.254 L 31.778 39.933 Z "/></g></symbol><symbol id="reload" viewBox="0 0 4608 4608" fill="currentColor"><g clip-path="url(#_clipPath_Jpoo6vptqPOUdIWImBTVz8UU5pdLadV8)"><mask id="_mask_XJJzGwBHtcyoAGaFj0iJ9bzARcwrOzMW" x="-200%" y="-200%" width="400%" height="400%"><rect x="-200%" y="-200%" width="400%" height="400%" style="fill:white;"/><path d=" M 2407.04 3.2 C 2407.04 3.2 2453.12 6.694 2453.12 6.694 C 2453.12 6.694 2533.76 11.533 2533.76 11.533 C 2533.76 11.533 2637.44 25.165 2637.44 25.165 C 2795.686 45.978 2988.531 95.283 3136.64 154.496 C 3439.117 275.379 3689.638 431.398 3923.84 659.878 C 3923.84 659.878 3985.626 725.12 3985.626 725.12 C 3985.626 725.12 4091.802 844.16 4091.802 844.16 C 4330.189 1137.114 4498.074 1486.592 4569.728 1857.92 C 4569.728 1857.92 4602.867 2080.64 4602.867 2080.64 C 4602.867 2080.64 4607.706 2161.28 4607.706 2161.28 C 4607.706 2161.28 4611.2 2207.36 4611.2 2207.36 C 4611.2 2207.36 4611.2 2414.72 4611.2 2414.72 C 4611.2 2414.72 4607.706 2453.12 4607.706 2453.12 C 4607.706 2453.12 4602.867 2533.76 4602.867 2533.76 C 4602.867 2533.76 4589.773 2633.6 4589.773 2633.6 C 4568.422 2784.934 4533.094 2934.925 4481.83 3079.04 C 4381.722 3360.358 4237.03 3601.779 4042.381 3827.84 C 3841.472 4061.158 3582.464 4253.466 3305.6 4387.482 C 3069.517 4501.76 2794.957 4577.984 2533.76 4603.366 C 2533.76 4603.366 2503.04 4603.366 2503.04 4603.366 C 2503.04 4603.366 2407.04 4611.2 2407.04 4611.2 C 2407.04 4611.2 2199.68 4611.2 2199.68 4611.2 C 2199.68 4611.2 2161.28 4607.706 2161.28 4607.706 C 2161.28 4607.706 2080.64 4602.867 2080.64 4602.867 C 2080.64 4602.867 1976.96 4589.235 1976.96 4589.235 C 1816.41 4568.115 1624.179 4518.464 1473.92 4458.368 C 1183.117 4342.054 954.906 4199.667 725.12 3985.626 C 725.12 3985.626 659.878 3923.84 659.878 3923.84 C 458.739 3717.67 296.768 3474.253 183.181 3209.6 C 94.899 3003.891 32.768 2756.634 11.034 2533.76 C 11.034 2533.76 11.034 2503.04 11.034 2503.04 C 11.034 2503.04 3.2 2407.04 3.2 2407.04 C 3.2 2407.04 3.2 2203.52 3.2 2203.52 C 3.2 2203.52 6.886 2161.28 6.886 2161.28 C 10.381 2081.562 19.827 2001.997 32.96 1923.2 C 80.768 1636.352 180.723 1366.17 330.368 1116.8 C 434.278 943.616 579.43 759.91 728.96 624.627 C 728.96 624.627 778.88 579.2 778.88 579.2 C 778.88 579.2 3.2 579.2 3.2 579.2 C 3.2 579.2 3.2 195.2 3.2 195.2 C 3.2 195.2 1539.2 195.2 1539.2 195.2 C 1539.2 195.2 1539.2 1731.2 1539.2 1731.2 C 1539.2 1731.2 1155.2 1731.2 1155.2 1731.2 C 1155.2 1731.2 1155.2 775.04 1155.2 775.04 C 1155.2 775.04 1059.2 852.915 1059.2 852.915 C 997.376 906.867 938.24 963.814 883.213 1024.64 C 654.502 1277.542 494.797 1592.691 427.904 1927.04 C 411.2 2010.56 400.371 2091.814 394.534 2176.64 C 394.534 2176.64 391.04 2222.72 391.04 2222.72 C 391.04 2222.72 391.04 2387.84 391.04 2387.84 C 391.04 2387.84 394.534 2433.92 394.534 2433.92 C 404.864 2583.872 430.899 2731.712 475.597 2875.52 C 652.429 3444.339 1100.557 3913.203 1662.08 4113.19 C 2267.494 4328.806 2940.954 4227.776 3455.36 3841.395 C 3600.627 3732.262 3732.262 3600.627 3841.395 3455.36 C 3965.043 3290.701 4062.272 3105.382 4127.36 2910.08 C 4174.093 2769.92 4202.125 2626.803 4216.333 2480 C 4216.333 2480 4223.36 2395.52 4223.36 2395.52 C 4223.36 2395.52 4223.36 2226.56 4223.36 2226.56 C 4223.36 2226.56 4219.866 2180.48 4219.866 2180.48 C 4214.029 2095.386 4203.93 2010.829 4187.072 1927.04 C 4115.341 1570.496 3940.621 1244.71 3689.754 982.4 C 3689.754 982.4 3662.374 952.026 3662.374 952.026 C 3662.374 952.026 3632 924.646 3632 924.646 C 3553.587 849.651 3471.642 782.682 3382.4 720.819 C 3144.627 556.083 2858.163 448.448 2572.16 408.013 C 2492.864 396.838 2414.067 391.462 2334.08 391.04 C 2326.093 391.002 2312.038 391.654 2305.549 386.547 C 2294.605 377.907 2303.322 329.715 2303.36 314.24 C 2303.36 314.24 2307.2 72.32 2307.2 72.32 C 2307.2 72.32 2311.04 3.2 2311.04 3.2 C 2311.04 3.2 2407.04 3.2 2407.04 3.2 Z " fill="black" stroke="none"/></mask><path d=" M 2407.04 3.2 C 2407.04 3.2 2453.12 6.694 2453.12 6.694 C 2453.12 6.694 2533.76 11.533 2533.76 11.533 C 2533.76 11.533 2637.44 25.165 2637.44 25.165 C 2795.686 45.978 2988.531 95.283 3136.64 154.496 C 3439.117 275.379 3689.638 431.398 3923.84 659.878 C 3923.84 659.878 3985.626 725.12 3985.626 725.12 C 3985.626 725.12 4091.802 844.16 4091.802 844.16 C 4330.189 1137.114 4498.074 1486.592 4569.728 1857.92 C 4569.728 1857.92 4602.867 2080.64 4602.867 2080.64 C 4602.867 2080.64 4607.706 2161.28 4607.706 2161.28 C 4607.706 2161.28 4611.2 2207.36 4611.2 2207.36 C 4611.2 2207.36 4611.2 2414.72 4611.2 2414.72 C 4611.2 2414.72 4607.706 2453.12 4607.706 2453.12 C 4607.706 2453.12 4602.867 2533.76 4602.867 2533.76 C 4602.867 2533.76 4589.773 2633.6 4589.773 2633.6 C 4568.422 2784.934 4533.094 2934.925 4481.83 3079.04 C 4381.722 3360.358 4237.03 3601.779 4042.381 3827.84 C 3841.472 4061.158 3582.464 4253.466 3305.6 4387.482 C 3069.517 4501.76 2794.957 4577.984 2533.76 4603.366 C 2533.76 4603.366 2503.04 4603.366 2503.04 4603.366 C 2503.04 4603.366 2407.04 4611.2 2407.04 4611.2 C 2407.04 4611.2 2199.68 4611.2 2199.68 4611.2 C 2199.68 4611.2 2161.28 4607.706 2161.28 4607.706 C 2161.28 4607.706 2080.64 4602.867 2080.64 4602.867 C 2080.64 4602.867 1976.96 4589.235 1976.96 4589.235 C 1816.41 4568.115 1624.179 4518.464 1473.92 4458.368 C 1183.117 4342.054 954.906 4199.667 725.12 3985.626 C 725.12 3985.626 659.878 3923.84 659.878 3923.84 C 458.739 3717.67 296.768 3474.253 183.181 3209.6 C 94.899 3003.891 32.768 2756.634 11.034 2533.76 C 11.034 2533.76 11.034 2503.04 11.034 2503.04 C 11.034 2503.04 3.2 2407.04 3.2 2407.04 C 3.2 2407.04 3.2 2203.52 3.2 2203.52 C 3.2 2203.52 6.886 2161.28 6.886 2161.28 C 10.381 2081.562 19.827 2001.997 32.96 1923.2 C 80.768 1636.352 180.723 1366.17 330.368 1116.8 C 434.278 943.616 579.43 759.91 728.96 624.627 C 728.96 624.627 778.88 579.2 778.88 579.2 C 778.88 579.2 3.2 579.2 3.2 579.2 C 3.2 579.2 3.2 195.2 3.2 195.2 C 3.2 195.2 1539.2 195.2 1539.2 195.2 C 1539.2 195.2 1539.2 1731.2 1539.2 1731.2 C 1539.2 1731.2 1155.2 1731.2 1155.2 1731.2 C 1155.2 1731.2 1155.2 775.04 1155.2 775.04 C 1155.2 775.04 1059.2 852.915 1059.2 852.915 C 997.376 906.867 938.24 963.814 883.213 1024.64 C 654.502 1277.542 494.797 1592.691 427.904 1927.04 C 411.2 2010.56 400.371 2091.814 394.534 2176.64 C 394.534 2176.64 391.04 2222.72 391.04 2222.72 C 391.04 2222.72 391.04 2387.84 391.04 2387.84 C 391.04 2387.84 394.534 2433.92 394.534 2433.92 C 404.864 2583.872 430.899 2731.712 475.597 2875.52 C 652.429 3444.339 1100.557 3913.203 1662.08 4113.19 C 2267.494 4328.806 2940.954 4227.776 3455.36 3841.395 C 3600.627 3732.262 3732.262 3600.627 3841.395 3455.36 C 3965.043 3290.701 4062.272 3105.382 4127.36 2910.08 C 4174.093 2769.92 4202.125 2626.803 4216.333 2480 C 4216.333 2480 4223.36 2395.52 4223.36 2395.52 C 4223.36 2395.52 4223.36 2226.56 4223.36 2226.56 C 4223.36 2226.56 4219.866 2180.48 4219.866 2180.48 C 4214.029 2095.386 4203.93 2010.829 4187.072 1927.04 C 4115.341 1570.496 3940.621 1244.71 3689.754 982.4 C 3689.754 982.4 3662.374 952.026 3662.374 952.026 C 3662.374 952.026 3632 924.646 3632 924.646 C 3553.587 849.651 3471.642 782.682 3382.4 720.819 C 3144.627 556.083 2858.163 448.448 2572.16 408.013 C 2492.864 396.838 2414.067 391.462 2334.08 391.04 C 2326.093 391.002 2312.038 391.654 2305.549 386.547 C 2294.605 377.907 2303.322 329.715 2303.36 314.24 C 2303.36 314.24 2307.2 72.32 2307.2 72.32 C 2307.2 72.32 2311.04 3.2 2311.04 3.2 C 2311.04 3.2 2407.04 3.2 2407.04 3.2 Z " mask="url(#_mask_XJJzGwBHtcyoAGaFj0iJ9bzARcwrOzMW)" vector-effect="non-scaling-stroke" stroke-width="0.032" stroke="rgb(0,0,0)" stroke-linejoin="miter" stroke-linecap="butt" stroke-miterlimit="4"/></g></symbol></svg>